<?xml version="1.0" encoding="UTF-8" standalone="no"?>
<!-- Created with Inkscape (http://www.inkscape.org/) -->

<svg
   width="680mm"
   height="256mm"
   viewBox="0 0 680 256"
   version="1.1"
   id="netwiz-logo"
   xml:space="preserve"
   xmlns="http://www.w3.org/2000/svg"><path
       d="M 302.97678,174.74374 H 288.27636 L 234.79483,91.721373 h -0.56001 c 0.18667,3.26676 0.42001,7.326876 0.70002,12.180347 0.28001,4.85347 0.42001,9.84695 0.42001,14.98043 v 55.86159 H 223.73452 V 74.780889 h 14.56041 l 53.34153,82.742361 h 0.56001 c -0.0933,-1.49337 -0.23334,-3.73344 -0.42001,-6.72019 -0.0933,-2.98675 -0.23334,-6.25351 -0.42001,-9.80028 -0.0933,-3.54677 -0.14001,-6.81353 -0.14001,-9.80028 V 74.780889 h 11.76034 z M 357.4381,98.301561 c 6.44018,0 11.947,1.40004 16.52047,4.200119 4.6668,2.80008 8.21357,6.76686 10.6403,11.90034 2.52007,5.04015 3.78011,10.96698 3.78011,17.78051 v 7.42021 h -51.38147 c 0.18667,8.49357 2.3334,14.98043 6.44019,19.46056 4.20012,4.38679 10.03362,6.58018 17.5005,6.58018 4.76013,0 8.96025,-0.42001 12.60036,-1.26003 3.73344,-0.93336 7.56022,-2.24006 11.48033,-3.92011 v 10.7803 c -3.82678,1.68005 -7.60689,2.89342 -11.34033,3.64011 -3.73344,0.84002 -8.1669,1.26003 -13.30038,1.26003 -7.09353,0 -13.39371,-1.44671 -18.90054,-4.34012 -5.41349,-2.89341 -9.66027,-7.18687 -12.74036,-12.88037 -2.98675,-5.78683 -4.48013,-12.8337 -4.48013,-21.1406 0,-8.21357 1.35337,-15.26044 4.06012,-21.14061 2.80008,-5.88017 6.67352,-10.40696 11.62033,-13.58038 5.04014,-3.173426 10.87364,-4.760139 17.5005,-4.760139 z m -0.14001,10.080289 c -5.88017,0 -10.54697,1.91339 -14.0004,5.74016 -3.36009,3.73344 -5.36682,8.96026 -6.02017,15.68045 h 38.22109 c -0.0933,-6.34685 -1.58671,-11.48033 -4.48012,-15.40044 -2.89342,-4.01345 -7.46689,-6.02017 -13.7204,-6.02017 z m 75.18204,57.68165 c 1.86672,0 3.78011,-0.14001 5.74016,-0.42002 1.96006,-0.37334 3.54677,-0.74668 4.76014,-1.12003 v 9.38027 c -1.30671,0.65335 -3.17343,1.1667 -5.60016,1.54004 -2.42674,0.46668 -4.76014,0.70002 -7.0002,0.70002 -3.92011,0 -7.56022,-0.65335 -10.92031,-1.96005 -3.26676,-1.40004 -5.92684,-3.78011 -7.98023,-7.14021 -2.05339,-3.36009 -3.08009,-8.07356 -3.08009,-14.1404 v -43.68125 h -10.6403 v -5.88016 l 10.78031,-4.900145 4.90014,-15.960456 h 7.2802 v 17.220492 h 21.70062 v 9.520269 h -21.70062 v 43.40124 c 0,4.57347 1.07337,7.98023 3.2201,10.22029 2.24006,2.14673 5.08681,3.2201 8.54024,3.2201 z M 574.44392,74.780889 547.84316,174.74374 H 535.1028 l -19.46056,-65.52187 c -0.74669,-2.70674 -1.49337,-5.41348 -2.24006,-8.12023 -0.74669,-2.706743 -1.35337,-5.086811 -1.82005,-7.140203 -0.46668,-2.146728 -0.79336,-3.640104 -0.98003,-4.480128 -0.0933,1.213368 -0.60668,3.826776 -1.54004,7.840224 -0.84003,3.920107 -1.91339,8.026897 -3.2201,12.320347 l -18.90054,65.10186 H 474.20106 L 447.7403,74.780889 h 13.16038 l 15.54044,61.041741 c 1.12003,4.29346 2.05339,8.44691 2.80008,12.46036 0.84003,4.01345 1.49338,7.79355 1.96006,11.34032 0.46668,-3.6401 1.1667,-7.60688 2.10006,-11.90034 0.93336,-4.29345 2.00672,-8.49357 3.22009,-12.60036 l 17.64051,-60.341721 h 13.02037 l 18.34052,60.761731 c 1.30671,4.29346 2.42674,8.58692 3.3601,12.88037 0.93336,4.20012 1.63338,7.93356 2.10006,11.20032 0.46668,-3.45343 1.12003,-7.18687 1.96005,-11.20032 0.84003,-4.10678 1.82006,-8.35357 2.94009,-12.74036 l 15.40044,-60.901741 z m 26.04052,24.920712 V 174.74374 H 588.16409 V 99.701601 Z m 72.24197,75.042139 h -54.88156 v -8.12023 L 658.166,109.22187 h -37.94109 v -9.520269 h 51.52147 v 9.240259 l -39.76113,56.28161 h 40.74116 z"
       id="text4"
       style="font-size:140.004px;stroke-width:11.667;stroke-opacity:0"
       transform="scale(0.89948444,1.111748)"
       aria-label="NetWiz"
 /><circle
     style="fill:none;stroke:#000000;stroke-width:8;stroke-opacity:1"
     id="hat-tip-circle-0"
     cx="266.67786"
     cy="203.66338"
     r="10" /><circle
     style="fill:none;stroke:#000000;stroke-width:8;stroke-opacity:1"
     id="hat-tip-circle-0-5"
     cx="267.14001"
     cy="77.144775"
     r="10" /><g
     id="netwiz"
     transform="translate(24,4)"><g
       id="ear-group"><circle
         style="fill:none;stroke:#000000;stroke-width:8;stroke-opacity:1"
         id="ear-circle"
         cx="28"
         cy="152"
         r="10" /><path
         style="fill:#ffffff;fill-opacity:1;stroke:#000000;stroke-width:8;stroke-linecap:round;stroke-linejoin:round;stroke-opacity:1;paint-order:stroke fill markers"
         d="M 38,152 H 62"
         id="ear-stem" /></g><g
       id="shoulder-group"><circle
         style="fill:none;stroke:#000000;stroke-width:8;stroke-opacity:1"
         id="shoulder-circle"
         cx="180"
         cy="200"
         r="10" /><path
         style="fill:#ffffff;fill-opacity:1;stroke:#000000;stroke-width:8;stroke-linecap:round;stroke-linejoin:round;stroke-dasharray:none;stroke-opacity:1;paint-order:stroke fill markers"
         d="m 138,200 h 32"
         id="collar-bone" /></g><path
       style="fill:none;stroke:#000000;stroke-width:7.99999;stroke-linecap:round;stroke-linejoin:round;stroke-dasharray:none;stroke-opacity:1;paint-order:stroke fill markers"
       d="m 62,122 v 57 l 28,32 h 32 l 29,-34 V 120 L 143,96 126,79 84,80 67,97 Z"
       id="head"/><path
       style="fill:#ffffff;fill-opacity:1;stroke:#000000;stroke-width:16;stroke-linecap:round;stroke-linejoin:round;stroke-dasharray:none;stroke-opacity:1;paint-order:stroke fill markers"
       d="m 60,178 36,-20 h 20 l 35,20 -46,54 z"
       id="beard" /><g
       id="hat"><g
         id="hat-main-group"><path
           style="fill:#ffffff;fill-opacity:1;stroke:#000000;stroke-width:16;stroke-linecap:round;stroke-linejoin:round;stroke-dasharray:none;stroke-opacity:1;paint-order:stroke fill markers"
           d="M 76,20 60,124 h 91 L 143,94 124,57 85,13 c -1,0 -2.5,0 -4,0 z"
           id="hat-main" /><g
           id="hat-tip"><circle
             style="fill:none;stroke:#000000;stroke-width:8;stroke-opacity:1"
             id="hat-tip-circle"
             cx="33"
             cy="40"
             r="10" /><path
             style="fill:#ffffff;fill-opacity:1;stroke:#000000;stroke-width:8;stroke-linecap:round;stroke-linejoin:round;stroke-opacity:1;paint-order:stroke fill markers"
             d="M 42,36 72,20"
             id="hat-tip-connector" /></g></g><g
         id="hat-brim-group"><path
           style="fill:#ffffff;fill-opacity:1;stroke:#000000;stroke-width:16;stroke-linecap:round;stroke-linejoin:round;stroke-opacity:1;paint-order:stroke fill markers"
           d="M 15,122 H 193 L 147,108 61,107 Z"
           id="brim" /><g
           id="g2"><circle
             style="fill:none;stroke:#000000;stroke-width:8;stroke-dasharray:none;stroke-opacity:1"
             id="hat-brim-circle"
             cx="180"
             cy="72"
             r="10" /><path
             style="fill:#ffffff;fill-opacity:1;stroke:#000000;stroke-width:8;stroke-linecap:round;stroke-linejoin:round;stroke-opacity:1;paint-order:stroke fill markers"
             d="M 180,113 V 82"
             id="brim-connector" /></g></g></g><g
       id="facial-features"><g
         id="eyes"><circle
           style="fill:none;stroke:#000000;stroke-width:8;stroke-opacity:1"
           id="his-right-eye"
           cx="90"
           cy="140"
           r="3" /><circle
           style="fill:none;stroke:#000000;stroke-width:8;stroke-opacity:1"
           id="his-left-eye"
           cx="122"
           cy="140"
           r="3" /></g><path
         style="fill:none;fill-opacity:1;stroke:#000000;stroke-width:8;stroke-linecap:round;stroke-opacity:1"
         d="m 94,178 h 22"
         id="mouth" /></g></g><circle
     style="fill:none;stroke:#000000;stroke-width:8;stroke-opacity:1"
     id="hat-tip-circle-0-2"
     cx="280.06821"
     cy="149.70026"
     r="10" /><circle
     style="fill:none;stroke:#000000;stroke-width:8;stroke-opacity:1"
     id="hat-tip-circle-0-2-9"
     cx="397.18851"
     cy="103.85043"
     r="10" /><circle
     style="fill:none;stroke:#000000;stroke-width:8;stroke-opacity:1"
     id="hat-tip-circle-0-2-947"
     cx="429.12311"
     cy="200.25427"
     r="10" /><circle
     style="fill:none;stroke:#000000;stroke-width:8;stroke-opacity:1"
     id="hat-tip-circle-0-2-53"
     cx="525.42926"
     cy="99.98362"
     r="10" /><circle
     style="fill:none;stroke:#000000;stroke-width:8;stroke-opacity:1"
     id="hat-tip-circle-0-2-8"
     cx="612.65717"
     cy="112.17475"
     r="10" /><circle
     style="fill:none;stroke:#000000;stroke-width:8;stroke-opacity:1"
     id="hat-tip-circle-0-2-43"
     cx="545.94128"
     cy="195.81291"
     r="10" /><circle
     style="fill:none;stroke:#000000;stroke-width:8;stroke-opacity:1"
     id="hat-tip-circle-0-2-5"
     cx="356.81943"
     cy="180.3497"
     r="10" /></svg>
